<svg preserveAspectRatio="none" width="100%" height="100%" overflow="visible" style="display: block;" viewBox="0 0 316 654" fill="none" xmlns="http://www.w3.org/2000/svg">
<path id="Flattened" fill-rule="evenodd" clip-rule="evenodd" d="M1.61104 47.6065C1.61104 21.3141 23.0227 0 49.4353 0H266.539C292.951 0 314.363 21.3141 314.363 47.6065V203.569C315.267 203.569 316 204.298 316 205.198V281.156C316 282.055 315.267 282.785 314.363 282.785V606.394C314.363 632.686 292.951 654 266.539 654H49.4353C23.0227 654 1.61104 632.686 1.61104 606.394V282.437C0.719782 282.422 0.00184964 281.698 0.00184964 280.808V234.98C0.00184964 234.089 0.719782 233.365 1.61104 233.35V218.414C0.718926 218.4 0 217.676 0 216.785V170.434C0 169.543 0.718926 168.819 1.61104 168.805V146.139C0.718926 146.125 0 145.401 0 144.51V123.17C0 122.279 0.718926 121.554 1.61104 121.541V47.6065ZM49.4353 8.95568C27.9914 8.95568 10.6077 26.2602 10.6077 47.6065V606.394C10.6077 627.74 27.9914 645.044 49.4353 645.044H266.539C287.983 645.044 305.366 627.74 305.366 606.394V47.6065C305.366 26.2602 287.983 8.95568 266.539 8.95568H49.4353Z" fill="var(--fill-0, black)"/>
</svg>
